 <svg  version="1.0" xmlns="http://www.w3.org/2000/svg"  width="217.000000pt" height="122.000000pt" viewBox="0 0 217.000000 122.000000"  preserveAspectRatio="xMidYMid meet">  <g transform="translate(0.000000,122.000000) scale(0.100000,-0.100000)" fill="#a52cdd" stroke="none"> <path d="M1785 1179 c-44 -4 -125 -12 -180 -18 -130 -15 -380 -40 -473 -48 -40 -3 -75 -10 -79 -16 -6 -10 84 -6 247 13 96 11 362 38 489 49 83 8 119 4 174 -18 37 -14 51 -29 78 -80 22 -44 22 -85 -2 -186 -5 -22 -21 -89 -35 -150 -14 -60 -34 -146 -44 -190 -11 -44 -26 -114 -35 -155 -36 -164 -44 -181 -113 -229 -22 -15 -53 -25 -92 -28 -69 -7 -70 -6 -46 87 22 88 28 130 18 130 -6 0 -13 -8 -17 -17 -11 -27 -37 -154 -39 -188 l-1 -30 72 1 c84 0 112 12 168 69 35 36 43 52 59 126 10 46 26 116 36 154 9 39 27 115 40 170 12 55 33 144 46 198 38 160 40 188 13 241 -47 96 -126 127 -284 115z"/> <path d="M1735 1130 c-78 -9 -226 -26 -357 -40 -49 -6 -130 -15 -180 -20 -51 -6 -131 -15 -178 -20 -113 -12 -270 -29 -350 -38 -36 -4 -64 -11 -62 -17 2 -5 13 -9 25 -8 50 4 358 34 437 43 47 5 128 14 180 20 184 20 276 31 360 40 176 21 270 24 298 9 38 -20 66 -49 81 -86 14 -34 14 -33 -39 -243 -4 -19 -13 -53 -18 -75 -6 -22 -13 -60 -17 -85 -3 -25 -10 -56 -15 -70 -5 -14 -20 -76 -35 -139 -14 -63 -33 -127 -40 -142 -21 -39 -59 -66 -105 -74 -22 -4 -40 -11 -40 -15 0 -46 135 13 177 76 15 23 40 121 64 249 5 28 13 66 18 85 6 19 15 58 21 85 11 50 15 66 46 185 38 145 26 199 -53 252 -47 32 -112 40 -218 28z"/> <path d="M879 1085 c-3 -2 -50 -9 -104 -14 -226 -23 -296 -32 -318 -41 -16 -7 -2 -9 48 -5 98 7 258 24 337 35 37 6 84 10 105 10 21 0 45 5 53 10 11 7 -5 10 -51 10 -36 0 -68 -2 -70 -5z"/> <path d="M275 1013 c-80 -17 -145 -87 -145 -155 0 -42 73 -248 88 -248 10 0 12 6 7 18 -4 9 -11 35 -17 57 -5 22 -18 65 -28 96 -29 81 -25 120 16 165 24 26 80 54 110 54 30 0 32 -3 58 -77 40 -116 48 -133 57 -133 12 0 12 1 -6 57 -8 26 -20 64 -26 83 -25 84 -30 90 -63 89 -17 -1 -40 -3 -51 -6z"/> <path d="M254 954 c-38 -19 -64 -62 -64 -108 0 -31 34 -151 59 -211 11 -25 66 -204 81 -262 21 -83 91 -123 235 -135 261 -20 356 -28 428 -34 52 -5 77 -3 77 4 0 15 -36 21 -182 32 -71 6 -185 14 -255 20 -158 12 -180 16 -218 45 -31 23 -42 48 -100 240 -15 50 -31 99 -35 110 -12 29 -26 72 -45 137 -15 53 -15 59 0 92 10 20 30 41 51 51 19 9 34 20 34 25 0 14 -31 12 -66 -6z"/> <path d="M709 853 c-1 -4 -1 -11 0 -15 0 -5 -3 -8 -9 -8 -5 0 -10 -4 -10 -10 0 -5 11 -10 25 -10 14 0 25 5 25 10 0 6 -5 10 -11 10 -5 0 -8 4 -4 9 3 5 1 12 -5 16 -5 3 -11 3 -11 -2z"/> <path d="M895 850 c-3 -5 1 -10 9 -10 9 0 16 5 16 10 0 6 -4 10 -9 10 -6 0 -13 -4 -16 -10z"/> <path d="M1513 853 c-13 -2 -23 -9 -23 -14 0 -5 -8 -9 -17 -9 -14 0 -14 -3 -5 -12 10 -10 15 -10 22 2 5 9 25 15 49 15 23 0 41 3 41 7 0 5 -4 8 -9 8 -5 0 -15 2 -23 4 -7 2 -23 1 -35 -1z"/> <path d="M846 829 c-12 -11 -15 -19 -7 -19 13 0 41 24 41 34 0 11 -15 5 -34 -15z"/> <path d="M933 843 c4 -3 10 -3 14 0 3 4 0 7 -7 7 -7 0 -10 -3 -7 -7z"/> <path d="M1022 830 c7 -11 19 -20 26 -20 7 0 10 -4 7 -10 -3 -5 1 -10 9 -10 14 0 14 3 4 20 -7 11 -19 20 -26 20 -7 0 -10 5 -7 10 3 6 -1 10 -9 10 -14 0 -14 -3 -4 -20z"/> <path d="M1165 840 c3 -5 0 -10 -7 -10 -7 0 -19 -9 -26 -20 -10 -17 -10 -20 4 -20 8 0 12 5 9 10 -3 6 0 10 7 10 7 0 19 9 26 20 10 17 10 20 -4 20 -8 0 -12 -4 -9 -10z"/> <path d="M1215 840 c4 -6 11 -8 16 -5 14 9 11 15 -7 15 -8 0 -12 -5 -9 -10z"/> <path d="M1375 840 c3 -5 10 -10 16 -10 5 0 9 5 9 10 0 6 -7 10 -16 10 -8 0 -12 -4 -9 -10z"/> <path d="M960 830 c0 -5 5 -10 10 -10 6 0 10 5 10 10 0 6 -4 10 -10 10 -5 0 -10 -4 -10 -10z"/> <path d="M1590 830 c0 -5 5 -10 10 -10 6 0 10 5 10 10 0 6 -4 10 -10 10 -5 0 -10 -4 -10 -10z"/> <path d="M1227 823 c-9 -2 -15 -8 -12 -13 3 -5 13 -6 21 -3 9 3 20 0 24 -8 5 -7 12 -10 16 -7 6 6 -20 40 -28 37 -2 -1 -11 -3 -21 -6z"/> <path d="M1375 810 c3 -5 10 -10 16 -10 5 0 9 5 9 10 0 6 -7 10 -16 10 -8 0 -12 -4 -9 -10z"/> <path d="M1445 800 c-3 -5 1 -10 9 -10 9 0 16 5 16 10 0 6 -4 10 -9 10 -6 0 -13 -4 -16 -10z"/> <path d="M1610 800 c0 -5 4 -10 9 -10 6 0 13 5 16 10 3 6 -1 10 -9 10 -9 0 -16 -4 -16 -10z"/> <path d="M672 780 c-10 -17 -10 -20 3 -20 8 0 15 2 15 4 0 2 3 11 6 20 9 23 -9 20 -24 -4z"/> <path d="M734 784 c3 -9 6 -18 6 -20 0 -2 7 -4 15 -4 13 0 13 3 3 20 -15 24 -33 27 -24 4z"/> <path d="M850 783 c8 -3 17 -9 20 -12 11 -13 48 -30 54 -24 7 7 -59 43 -76 42 -8 0 -7 -3 2 -6z"/> <path d="M1218 783 c7 -3 16 -2 19 1 4 3 -2 6 -13 5 -11 0 -14 -3 -6 -6z"/> <path d="M1375 780 c4 -6 11 -8 16 -5 14 9 11 15 -7 15 -8 0 -12 -5 -9 -10z"/> <path d="M1070 771 c0 -5 11 -8 25 -7 38 4 43 16 7 16 -18 0 -32 -4 -32 -9z"/> <path d="M1280 774 c0 -4 9 -15 21 -25 11 -9 20 -19 19 -21 -1 -2 2 -11 5 -20 8 -19 35 -25 35 -8 0 6 -7 10 -16 10 -8 0 -13 4 -10 8 3 5 -6 20 -18 35 -23 26 -36 34 -36 21z"/> <path d="M1440 770 c0 -5 5 -10 10 -10 6 0 10 5 10 10 0 6 -4 10 -10 10 -5 0 -10 -4 -10 -10z"/> <path d="M1090 750 c0 -5 5 -10 10 -10 6 0 10 5 10 10 0 6 -4 10 -10 10 -5 0 -10 -4 -10 -10z"/> <path d="M1210 750 c0 -5 7 -10 15 -10 8 0 15 5 15 10 0 6 -7 10 -15 10 -8 0 -15 -4 -15 -10z"/> <path d="M1375 750 c3 -5 10 -10 16 -10 5 0 9 5 9 10 0 6 -7 10 -16 10 -8 0 -12 -4 -9 -10z"/> <path d="M655 740 c-3 -5 1 -10 10 -10 9 0 13 5 10 10 -3 6 -8 10 -10 10 -2 0 -7 -4 -10 -10z"/> <path d="M760 740 c0 -5 5 -10 11 -10 5 0 7 5 4 10 -3 6 -8 10 -11 10 -2 0 -4 -4 -4 -10z"/> <path d="M943 743 c4 -3 10 -3 14 0 3 4 0 7 -7 7 -7 0 -10 -3 -7 -7z"/> <path d="M966 731 c-4 -5 -2 -12 3 -15 5 -4 12 -2 15 3 4 5 2 12 -3 15 -5 4 -12 2 -15 -3z"/> <path d="M1444 718 c1 -13 6 -22 9 -20 4 1 10 2 13 2 4 0 1 6 -5 13 -6 8 -8 17 -4 20 3 4 1 7 -5 7 -7 0 -10 -10 -8 -22z"/> <path d="M1095 720 c-3 -5 -1 -10 4 -10 6 0 11 5 11 10 0 6 -2 10 -4 10 -3 0 -8 -4 -11 -10z"/> <path d="M1215 720 c-3 -5 1 -10 10 -10 9 0 13 5 10 10 -3 6 -8 10 -10 10 -2 0 -7 -4 -10 -10z"/> <path d="M1380 720 c0 -5 5 -10 10 -10 6 0 10 5 10 10 0 6 -4 10 -10 10 -5 0 -10 -4 -10 -10z"/> <path d="M640 710 c0 -5 5 -10 10 -10 6 0 10 5 10 10 0 6 -4 10 -10 10 -5 0 -10 -4 -10 -10z"/> <path d="M670 709 c0 -6 19 -10 48 -9 63 2 72 1 70 -7 -2 -5 0 -9 5 -10 9 -4 10 -1 2 20 -6 13 -19 17 -66 17 -35 0 -59 -4 -59 -11z"/> <path d="M956 685 c-3 -9 -16 -20 -28 -25 -21 -9 -20 -9 7 -6 17 2 29 9 28 15 -2 6 4 11 12 11 8 0 15 5 15 10 0 16 -27 12 -34 -5z"/> <path d="M1090 690 c0 -5 5 -10 10 -10 6 0 10 5 10 10 0 6 -4 10 -10 10 -5 0 -10 -4 -10 -10z"/> <path d="M1215 690 c-3 -5 1 -10 10 -10 9 0 13 5 10 10 -3 6 -8 10 -10 10 -2 0 -7 -4 -10 -10z"/> <path d="M1361 684 c-12 -14 -12 -17 0 -25 8 -5 20 -9 28 -9 11 0 11 3 1 15 -9 10 -9 15 -1 15 6 0 11 5 11 10 0 15 -23 11 -39 -6z"/> <path d="M1615 690 c4 -6 11 -8 16 -5 14 9 11 15 -7 15 -8 0 -12 -5 -9 -10z"/> <path d="M633 683 c4 -3 10 -3 14 0 3 4 0 7 -7 7 -7 0 -10 -3 -7 -7z"/> <path d="M1465 680 c-3 -5 1 -10 9 -10 9 0 16 5 16 10 0 6 -4 10 -9 10 -6 0 -13 -4 -16 -10z"/> <path d="M835 670 c3 -5 10 -10 16 -10 5 0 9 5 9 10 0 6 -7 10 -16 10 -8 0 -12 -4 -9 -10z"/> <path d="M1590 670 c0 -5 5 -10 10 -10 6 0 10 5 10 10 0 6 -4 10 -10 10 -5 0 -10 -4 -10 -10z"/> <path d="M875 660 c-3 -5 1 -10 10 -10 9 0 13 5 10 10 -3 6 -8 10 -10 10 -2 0 -7 -4 -10 -10z"/> <path d="M1495 660 c-3 -5 -1 -10 4 -10 6 0 11 5 11 10 0 6 -2 10 -4 10 -3 0 -8 -4 -11 -10z"/> <path d="M1540 660 c-24 -8 -23 -8 8 -9 20 -1 31 3 27 9 -3 6 -7 10 -8 9 -1 -1 -13 -5 -27 -9z"/> <path d="M618 653 c7 -3 16 -2 19 1 4 3 -2 6 -13 5 -11 0 -14 -3 -6 -6z"/> <path d="M798 653 c7 -3 16 -2 19 1 4 3 -2 6 -13 5 -11 0 -14 -3 -6 -6z"/> <path d="M1093 653 c4 -3 10 -3 14 0 3 4 0 7 -7 7 -7 0 -10 -3 -7 -7z"/> <path d="M1218 653 c7 -3 16 -2 19 1 4 3 -2 6 -13 5 -11 0 -14 -3 -6 -6z"/> <path d="M730 580 c0 -5 5 -10 10 -10 6 0 10 5 10 10 0 6 -4 10 -10 10 -5 0 -10 -4 -10 -10z"/> <path d="M764 578 c-3 -4 13 -8 35 -8 23 0 41 3 41 8 0 10 -70 11 -76 0z"/> <path d="M1000 580 c0 -5 5 -10 10 -10 6 0 10 5 10 10 0 6 -4 10 -10 10 -5 0 -10 -4 -10 -10z"/> <path d="M1220 580 c0 -5 7 -10 15 -10 8 0 15 5 15 10 0 6 -7 10 -15 10 -8 0 -15 -4 -15 -10z"/> <path d="M1265 580 c-3 -5 -1 -10 4 -10 6 0 11 5 11 10 0 6 -2 10 -4 10 -3 0 -8 -4 -11 -10z"/> <path d="M1370 578 c0 -5 27 -8 60 -8 33 0 60 3 60 8 0 4 -27 7 -60 7 -33 0 -60 -3 -60 -7z"/> <path d="M1500 580 c0 -5 5 -10 10 -10 6 0 10 5 10 10 0 6 -4 10 -10 10 -5 0 -10 -4 -10 -10z"/> <path d="M1193 573 c4 -3 10 -3 14 0 3 4 0 7 -7 7 -7 0 -10 -3 -7 -7z"/> <path d="M850 560 c0 -5 5 -10 10 -10 6 0 10 5 10 10 0 6 -4 10 -10 10 -5 0 -10 -4 -10 -10z"/> <path d="M1290 560 c0 -5 5 -10 10 -10 6 0 10 5 10 10 0 6 -4 10 -10 10 -5 0 -10 -4 -10 -10z"/> <path d="M990 550 c0 -5 5 -10 10 -10 6 0 10 5 10 10 0 6 -4 10 -10 10 -5 0 -10 -4 -10 -10z"/> <path d="M1023 540 c1 -11 7 -20 14 -20 17 0 16 8 -1 26 -13 12 -15 12 -13 -6z"/> <path d="M1173 553 c4 -3 10 -3 14 0 3 4 0 7 -7 7 -7 0 -10 -3 -7 -7z"/> <path d="M246 473 c14 -43 31 -98 39 -123 17 -54 71 -114 122 -136 21 -9 88 -20 148 -25 61 -5 166 -14 235 -19 69 -6 181 -15 250 -20 69 -5 181 -14 250 -20 258 -21 300 -23 300 -13 0 6 -39 13 -87 16 -49 4 -144 12 -213 17 -282 24 -355 30 -576 44 -250 16 -295 26 -350 78 -21 20 -38 52 -54 101 -12 40 -26 81 -30 92 -4 11 -13 35 -20 53 -7 17 -18 32 -25 32 -10 0 -7 -20 11 -77z"/> <path d="M733 543 c4 -3 10 -3 14 0 3 4 0 7 -7 7 -7 0 -10 -3 -7 -7z"/> <path d="M1378 543 c7 -3 16 -2 19 1 4 3 -2 6 -13 5 -11 0 -14 -3 -6 -6z"/> <path d="M865 530 c3 -5 8 -10 11 -10 2 0 4 5 4 10 0 6 -5 10 -11 10 -5 0 -7 -4 -4 -10z"/> <path d="M1150 530 c0 -5 5 -10 10 -10 6 0 10 5 10 10 0 6 -4 10 -10 10 -5 0 -10 -4 -10 -10z"/> <path d="M1313 533 c4 -3 10 -3 14 0 3 4 0 7 -7 7 -7 0 -10 -3 -7 -7z"/> <path d="M973 523 c4 -3 10 -3 14 0 3 4 0 7 -7 7 -7 0 -10 -3 -7 -7z"/> <path d="M730 510 c0 -5 5 -10 10 -10 6 0 10 5 10 10 0 6 -4 10 -10 10 -5 0 -10 -4 -10 -10z"/> <path d="M1375 510 c4 -6 11 -8 16 -5 14 9 11 15 -7 15 -8 0 -12 -5 -9 -10z"/> <path d="M863 503 c4 -3 10 -3 14 0 3 4 0 7 -7 7 -7 0 -10 -3 -7 -7z"/> <path d="M965 500 c-3 -5 -1 -10 4 -10 6 0 11 5 11 10 0 6 -2 10 -4 10 -3 0 -8 -4 -11 -10z"/> <path d="M1140 500 c0 -5 5 -10 10 -10 6 0 10 5 10 10 0 6 -4 10 -10 10 -5 0 -10 -4 -10 -10z"/> <path d="M1043 493 c4 -3 10 -3 14 0 3 4 0 7 -7 7 -7 0 -10 -3 -7 -7z"/> <path d="M730 479 c0 -5 5 -7 10 -4 6 3 10 8 10 11 0 2 -4 4 -10 4 -5 0 -10 -5 -10 -11z"/> <path d="M1374 482 c5 -8 76 -4 76 4 0 2 -18 4 -41 4 -22 0 -38 -4 -35 -8z"/> <path d="M1468 483 c7 -3 16 -2 19 1 4 3 -2 6 -13 5 -11 0 -14 -3 -6 -6z"/> <path d="M1503 483 c4 -3 10 -3 14 0 3 4 0 7 -7 7 -7 0 -10 -3 -7 -7z"/> <path d="M853 473 c4 -3 10 -3 14 0 3 4 0 7 -7 7 -7 0 -10 -3 -7 -7z"/> <path d="M950 470 c0 -5 5 -10 10 -10 6 0 10 5 10 10 0 6 -4 10 -10 10 -5 0 -10 -4 -10 -10z"/> <path d="M1050 470 c0 -5 5 -10 10 -10 6 0 10 5 10 10 0 6 -4 10 -10 10 -5 0 -10 -4 -10 -10z"/> <path d="M1140 470 c0 -5 5 -10 10 -10 6 0 10 5 10 10 0 6 -4 10 -10 10 -5 0 -10 -4 -10 -10z"/> <path d="M730 450 c0 -5 5 -10 10 -10 6 0 10 5 10 10 0 6 -4 10 -10 10 -5 0 -10 -4 -10 -10z"/> <path d="M760 450 c0 -5 5 -10 10 -10 6 0 10 5 10 10 0 6 -4 10 -10 10 -5 0 -10 -4 -10 -10z"/> <path d="M790 450 c0 -12 8 -12 35 0 18 8 17 9 -7 9 -16 1 -28 -3 -28 -9z"/> <path d="M1370 450 c0 -5 7 -10 15 -10 8 0 15 5 15 10 0 6 -7 10 -15 10 -8 0 -15 -4 -15 -10z"/> <path d="M970 439 c0 -5 5 -7 10 -4 6 3 10 8 10 11 0 2 -4 4 -10 4 -5 0 -10 -5 -10 -11z"/> <path d="M1003 443 c4 -3 10 -3 14 0 3 4 0 7 -7 7 -7 0 -10 -3 -7 -7z"/> <path d="M1033 443 c4 -3 10 -3 14 0 3 4 0 7 -7 7 -7 0 -10 -3 -7 -7z"/> <path d="M1063 443 c4 -3 10 -3 14 0 3 4 0 7 -7 7 -7 0 -10 -3 -7 -7z"/> <path d="M820 429 c0 -5 5 -7 10 -4 6 3 10 8 10 11 0 2 -4 4 -10 4 -5 0 -10 -5 -10 -11z"/> <path d="M1153 433 c4 -3 10 -3 14 0 3 4 0 7 -7 7 -7 0 -10 -3 -7 -7z"/> <path d="M1310 430 c0 -5 5 -10 10 -10 6 0 10 5 10 10 0 6 -4 10 -10 10 -5 0 -10 -4 -10 -10z"/> <path d="M730 420 c0 -5 5 -10 10 -10 6 0 10 5 10 10 0 6 -4 10 -10 10 -5 0 -10 -4 -10 -10z"/> <path d="M925 420 c-3 -5 -1 -10 4 -10 6 0 11 5 11 10 0 6 -2 10 -4 10 -3 0 -8 -4 -11 -10z"/> <path d="M1080 420 c0 -5 5 -10 10 -10 6 0 10 5 10 10 0 6 -4 10 -10 10 -5 0 -10 -4 -10 -10z"/> <path d="M1370 420 c0 -5 7 -10 15 -10 8 0 15 5 15 10 0 6 -7 10 -15 10 -8 0 -15 -4 -15 -10z"/> <path d="M840 414 c0 -7 27 -34 34 -34 4 0 1 9 -6 20 -12 19 -28 27 -28 14z"/> <path d="M1173 413 c4 -3 10 -3 14 0 3 4 0 7 -7 7 -7 0 -10 -3 -7 -7z"/> <path d="M1290 410 c0 -5 5 -10 11 -10 5 0 7 5 4 10 -3 6 -8 10 -11 10 -2 0 -4 -4 -4 -10z"/> <path d="M730 390 c0 -5 5 -10 10 -10 6 0 10 5 10 10 0 6 -4 10 -10 10 -5 0 -10 -4 -10 -10z"/> <path d="M920 390 c0 -7 3 -10 7 -7 3 4 3 10 0 14 -4 3 -7 0 -7 -7z"/> <path d="M1095 390 c3 -5 8 -10 11 -10 2 0 4 5 4 10 0 6 -5 10 -11 10 -5 0 -7 -4 -4 -10z"/> <path d="M1193 393 c4 -3 10 -3 14 0 3 4 0 7 -7 7 -7 0 -10 -3 -7 -7z"/> <path d="M1225 390 c-3 -5 1 -10 10 -10 9 0 13 5 10 10 -3 6 -8 10 -10 10 -2 0 -7 -4 -10 -10z"/> <path d="M1263 393 c4 -3 10 -3 14 0 3 4 0 7 -7 7 -7 0 -10 -3 -7 -7z"/> <path d="M1375 390 c4 -6 11 -8 16 -5 14 9 11 15 -7 15 -8 0 -12 -5 -9 -10z"/> <path d="M1470 390 c0 -5 5 -10 10 -10 6 0 10 5 10 10 0 6 -4 10 -10 10 -5 0 -10 -4 -10 -10z"/> <path d="M1505 390 c3 -5 8 -10 11 -10 2 0 4 5 4 10 0 6 -5 10 -11 10 -5 0 -7 -4 -4 -10z"/> <path d="M1125 210 c-8 -12 20 -18 130 -24 50 -3 132 -9 183 -12 62 -5 92 -3 92 4 0 6 -40 13 -97 16 -54 4 -137 11 -184 16 -106 12 -116 12 -124 0z"/> </g> </svg> 